<svg xmlns="http://www.w3.org/2000/svg" width='22' fill-rule="evenodd" stroke-linejoin="round" stroke-miterlimit="2" clip-rule="evenodd" viewBox="0 0 32 32" stroke="#000">
  <path d="M26.5 12.429a2.5 2.5 0 0 0-.801-1.834l-4.784-4.429a2.5 2.5 0 0 0-1.699-.666H8A2.5 2.5 0 0 0 5.5 8v16A2.5 2.5 0 0 0 8 26.5h16a2.5 2.5 0 0 0 2.5-2.5V12.429Zm-1 0V24a1.503 1.503 0 0 1-1.5 1.5H8A1.503 1.503 0 0 1 6.5 24V8A1.503 1.503 0 0 1 8 6.5h11.216c.378 0 .742.143 1.019.399l4.784 4.43c.307.284.481.683.481 1.1Z" stroke-width='0.5'/>
  <path d="M16.5 6a.5.5 0 0 0-.5-.5h-6a.5.5 0 0 0-.5.5v1.333a2.5 2.5 0 0 0 2.5 2.5h2a2.5 2.5 0 0 0 2.5-2.5V6zm-1 .5h-5v.833a1.5 1.5 0 0 0 1.5 1.5h2a1.5 1.5 0 0 0 1.5-1.5V6.5zm5.439 14.833a2.5 2.5 0 0 0-2.5-2.5h-4.878a2.5 2.5 0 0 0-2.5 2.5V26a.5.5 0 0 0 .5.5h8.878a.5.5 0 0 0 .5-.5v-4.667zm-1 4.167v-4.167a1.5 1.5 0 0 0-1.5-1.5h-4.878a1.5 1.5 0 0 0-1.5 1.5V25.5h7.878z" stroke-width='0.5'/>
</svg>
